<svg enable-background="new 0 0 2347.6 608.3" viewBox="0 0 767 608.3" xmlns="http://www.w3.org/2000/svg"><path d="m449.8 608.3c166.3.8 318-135.6 318-301.5 0-181.4-151.8-306.9-318-306.8h-143.1c-168.2-.1-306.7 125.4-306.7 306.8 0 166 138.5 302.3 306.7 301.5z" fill="#0079be"/><path d="m307.4 25.1c-153.7 0-278.3 124.7-278.4 278.5 0 153.8 124.6 278.4 278.4 278.4s278.4-124.7 278.4-278.4c0-153.8-124.6-278.4-278.4-278.5zm-176.4 278.5c.1-75.2 47.1-139.3 113.3-164.7v329.4c-66.2-25.4-113.2-89.5-113.3-164.7zm239.6 164.8v-329.5c66.2 25.4 113.2 89.5 113.3 164.7-.1 75.2-47.1 139.3-113.3 164.8z" fill="#fff"/></svg>